<?xml version="1.0" encoding="utf-8"?>
<!-- Generator: Adobe Illustrator 16.0.0, SVG Export Plug-In . SVG Version: 6.00 Build 0)  -->
<!DOCTYPE svg PUBLIC "-//W3C//DTD SVG 1.1//EN" "http://www.w3.org/Graphics/SVG/1.1/DTD/svg11.dtd">
<svg version="1.1" id="Layer_1" xmlns="http://www.w3.org/2000/svg" xmlns:xlink="http://www.w3.org/1999/xlink" x="0px" y="0px"
	 width="841.89px" height="595.28px" viewBox="0 0 841.89 595.28" enable-background="new 0 0 841.89 595.28" xml:space="preserve">
<g>
	<polygon fill="#D30F1E" points="248.041,253.114 262.001,253.114 284.507,186.747 218.142,209.254 218.142,223.213 
		263.383,207.871 	"/>
	<path fill="#D30F1E" d="M265.202,270.741h-16.498l31.274,41.908l-59.92-0.767l-34.6,48.929l-14.833-47.717l-2.956-9.51
		l-9.509-2.956l-47.716-14.831l48.926-34.602l-0.766-59.92l41.908,31.272v-16.495l-55.47-41.396l1.02,79.757l-65.125,46.057
		l66.659,20.72L43.217,415.575c-3.441,3.44-3.443,9.022,0,12.464c3.442,3.441,9.023,3.441,12.465,0l104.382-104.383l20.72,66.662
		l46.056-65.124l79.756,1.018L265.202,270.741z"/>
</g>
<g>
	<path fill="#D30F1E" d="M252.107,428.985c-2.727,0-5.998,2.073-5.998-38.819c0-53.869,5.669-51.906,7.523-51.906h10.032
		c4.254,0,5.779,0,11.124,7.308c10.25,14.066,10.904,22.026,13.085,22.026c1.635,0,2.289-7.96,13.848-22.026
		c6.107-7.417,7.743-7.308,11.995-7.308h8.507c1.854,0,7.523-1.963,7.523,51.906c0,40.893-3.271,38.819-5.998,38.819h-13.957
		c-1.309,0-3.927,0.33-3.927-1.634c0-1.526,6.215-21.156,6.215-49.616c0-2.292,0.328-15.702-3.271-15.702
		c-3.161,0-7.306,10.793-8.397,13.41c-9.159,22.355-5.452,32.606-12.758,32.606c-9.161,0-5.561-10.251-15.267-32.606
		c-1.089-2.398-4.688-13.41-8.068-13.41c-3.599,0-3.49,13.41-3.49,15.702c0,28.46,6.87,48.09,6.87,49.616
		c0,1.964-2.618,1.634-3.926,1.634H252.107z"/>
	<path fill="#D30F1E" d="M364.532,383.623c3.163-0.546,5.672-1.09,5.672-4.689c0-5.56-5.781-8.505-10.58-8.505
		c-11.12,0-9.485,9.378-11.885,9.378c-3.488,0-7.307-4.253-7.307-8.942c0-8.068,9.052-13.305,19.083-13.305
		c3.488,0,18.429-0.109,23.99,15.16c2.29,6.323,2.509,38.601,2.509,42.419c0,4.797,0.87,7.63,0.87,11.34
		c0,2.288-10.249,2.507-19.954,2.507c-26.278,0-28.131-13.52-28.131-20.063C338.799,395.182,352.319,385.695,364.532,383.623z
		 M371.293,402.706c0-3.819,0.655-8.396-4.579-8.396c-6.435,0-13.196,5.453-13.196,12.103c0,6.107,5.343,9.707,11.121,9.707
		c6.434,0,6.653-3.272,6.653-8.613V402.706z"/>
	<path fill="#D30F1E" d="M427.23,357.996c1.092,0.218,1.855,0.438,2.182,0.438c5.017,0,7.96-10.033,12.321-10.033
		c2.946,0,8.942,7.743,8.942,9.489c0,3.27-10.141,0-10.141,5.669c0,3.271,5.563,5.451,5.563,17.228
		c0,11.343-7.198,23.339-23.446,23.339c-5.997,0-13.305,3.707-13.305,6.868c0,2.07,1.748,3.706,3.708,3.706
		c4.583,0,13.633-5.449,23.883-5.449c2.508,0,11.56,2.399,11.56,6.322c0,2.837-4.363,15.05-7.636,15.05
		c-2.724,0-2.835-5.454-8.94-5.454c-3.271,0-6.652,1.311-10.25,2.728c-3.49,1.311-7.197,2.727-11.342,2.727
		c-8.615,0-15.703-5.016-15.703-13.959c0-12.757,12.432-13.957,12.432-17.009c0-2.618-7.85-7.415-7.85-19.193
		c0-14.285,8.832-22.901,23.443-22.901C424.505,357.56,426.032,357.779,427.23,357.996z M433.229,379.043
		c0-6.979-4.689-11.123-10.578-11.123c-5.889,0-10.578,4.145-10.578,11.123c0,6.434,4.144,11.123,10.578,11.123
		C428.54,390.166,433.229,386.022,433.229,379.043z"/>
	<path fill="#D30F1E" d="M463.326,428.985c-5.343,0-5.779,2.291-5.779-36.095c0-37.294,1.744-33.694,5.342-33.694h6
		c4.579,0,4.688,0.329,4.688,1.638c0,4.032-1.309,8.066-1.309,19.952c0,27.48,4.254,44.382,4.254,45.363
		c0,3.493-3.271,2.836-5.78,2.836H463.326z M458.747,343.494c0-4.688,4.034-7.524,8.395-7.524c4.363,0,8.396,2.837,8.396,7.524
		c0,4.689-4.032,7.199-8.396,7.199C462.781,350.693,458.747,348.184,458.747,343.494z"/>
	<path fill="#D30F1E" d="M483.826,397.58c0-18.755,9.486-40.021,30.969-40.021c9.486,0,16.357,5.13,16.357,11.341
		c0,3.272-2.399,9.596-6.436,9.596c-2.507,0-2.071-8.067-10.904-8.067c-11.23,0-15.267,14.831-15.267,23.991
		c0,10.576,5.016,19.408,15.377,19.408c11.777,0,14.502-10.795,15.483-10.795c0.546,0,1.637,1.963,1.637,6.433
		c0,13.084-8.615,21.156-21.481,21.156C491.458,430.622,483.826,413.502,483.826,397.58z"/>
	<path fill="#D30F1E" d="M564.083,383.623c3.16-0.546,5.671-1.09,5.671-4.689c0-5.56-5.781-8.505-10.579-8.505
		c-11.124,0-9.486,9.378-11.887,9.378c-3.489,0-7.305-4.253-7.305-8.942c0-8.068,9.053-13.305,19.083-13.305
		c3.49,0,18.429-0.109,23.989,15.16c2.29,6.323,2.51,38.601,2.51,42.419c0,4.797,0.872,7.63,0.872,11.34
		c0,2.288-10.251,2.507-19.955,2.507c-26.281,0-28.135-13.52-28.135-20.063C538.348,395.182,551.869,385.695,564.083,383.623z
		 M570.843,402.706c0-3.819,0.656-8.396-4.578-8.396c-6.436,0-13.195,5.453-13.195,12.103c0,6.107,5.344,9.707,11.124,9.707
		c6.432,0,6.649-3.272,6.649-8.613V402.706z"/>
	<path fill="#D30F1E" d="M600.832,428.985c-3.817,0-3.381-36.529-3.381-39.036c0-5.127-0.437-53.979,4.469-53.979h10.36
		c1.201,0,4.474-0.327,4.474,2.07c0,0.657-4.583,16.359-4.583,43.511c0,29.988,4.146,44.709,4.146,46.126
		c0,1.855-2.835,1.309-4.036,1.309H600.832z"/>
	<path fill="#D30F1E" d="M629.509,428.985c-5.78,0.221-4.035-3.597-4.579-25.733c0-14.615,5.996-64.992,9.158-64.992h17.338
		c0.764,0,2.069,0.218,2.069,2.183c0,2.397-12.644,25.843-12.644,55.938c0,15.051,6.542,18.648,12.538,18.648
		c10.034,0,16.138-9.269,18.867-9.269c2.068,0,6.323,21.043,6.323,21.592c0,2.181-3.381,1.634-4.69,1.634H629.509z"/>
	<path fill="#D30F1E" d="M690.355,428.985c-5.344,0-5.779,2.291-5.779-36.095c0-37.294,1.744-33.694,5.341-33.694h6.001
		c4.58,0,4.69,0.329,4.69,1.638c0,4.032-1.311,8.066-1.311,19.952c0,27.48,4.256,44.382,4.256,45.363
		c0,3.493-3.274,2.836-5.783,2.836H690.355z M685.775,343.494c0-4.688,4.034-7.524,8.396-7.524c4.36,0,8.396,2.837,8.396,7.524
		c0,4.689-4.036,7.199-8.396,7.199C689.81,350.693,685.775,348.184,685.775,343.494z"/>
	<path fill="#D30F1E" d="M722.193,428.985c-1.634,0-3.594,3.271-3.594-32.605c0-5.451,0.325-10.903,0.325-16.354
		c0-3.272,0.983-9.486-3.925-9.486c-1.963,0-3.054,1.308-4.254,1.308c-1.418,0-1.308-1.418-1.308-3.381
		c0-8.286,2.398-9.27,6.543-9.27c4.904,0,4.904-7.306,6.432-12.209c2.073-6.764,8.832-11.018,14.503-11.018
		c4.255,0,9.815-0.546,9.815,2.619c0,1.635-1.311,12.32-3.161,12.32c-1.528,0-1.967-0.982-3.165-0.982
		c-3.051,0-5.122,4.473-5.122,6.979c0,1.527,1.089,2.834,2.723,2.834c1.421,0,2.727-0.544,4.146-0.544
		c4.146,0,4.253,2.946,4.253,6.649c0,1.53,0,5.674-2.292,5.674c-0.871,0-3.05-0.98-5.013-0.98c-6.001,0-5.783,7.414-5.783,11.667
		c0,14.394,4.038,43.4,4.038,44.816c0,2.399-1.523,1.963-3.491,1.963H722.193z"/>
	<path fill="#D30F1E" d="M749.892,397.036c0-26.391,14.611-39.477,29.225-39.477c11.995,0,22.138,6.764,22.138,19.627
		c0,23.445-35.113,18.54-35.113,29.88c0,5.126,8.287,8.833,13.737,8.833c17.888,0,17.888-13.63,19.411-13.63
		c1.636,0,1.965,5.67,1.965,6.543c0,13.85-10.687,21.81-23.773,21.81C757.96,430.622,749.892,414.482,749.892,397.036z
		 M764.614,386.24c0,1.199,0.543,2.396,1.96,2.396c1.311,0,21.157-4.36,21.157-9.92c0-5.343-5.018-8.288-9.158-8.288
		C769.739,370.429,764.614,379.914,764.614,386.24z"/>
</g>
</svg>
